<svg width="1080" height="1080" viewBox="0 0 1080 1080" fill="none" xmlns="http://www.w3.org/2000/svg">
<g clip-path="url(#clip0)">
<path d="M652.07 200.57C647.075 198.253 641.377 197.959 636.17 199.75C630.825 201.762 626.28 205.458 623.22 210.28C616.11 221.02 615.55 235.76 621.06 247.28C623.573 252.619 627.664 257.059 632.78 260C634.025 260.688 635.331 261.26 636.68 261.71L637.37 261.92C640.5 262.856 643.81 263.027 647.02 262.42L647.73 262.26C647.875 262.24 648.019 262.21 648.16 262.17C649.356 261.879 650.523 261.484 651.65 260.99C661.44 256.76 667.2 245.9 668.51 235.63C668.718 233.971 668.825 232.302 668.83 230.63V230.63C668.77 218.91 663.37 205.72 652.07 200.57ZM650.83 258.11C649.634 258.673 648.38 259.102 647.09 259.39C643.836 260.099 640.451 259.919 637.29 258.87L636.82 258.71C632.122 256.847 628.161 253.501 625.54 249.18C619.26 239.36 618.65 225.93 623.72 215.47C628.04 206.57 637.2 199.47 647.51 202.11C659.83 205.25 665.77 219.03 665.83 230.7C665.77 241.42 661 253.28 650.83 258.11Z" fill="#4D4D4D"/>
<path d="M725.58 213.55V213.37C723.58 204.27 717.96 193.95 708.38 191.2C706.434 190.632 704.388 190.494 702.384 190.794C700.379 191.095 698.464 191.827 696.77 192.94C693.181 195.552 690.557 199.279 689.31 203.54C686.01 213.54 688.14 225.74 694.16 234.34C697.46 239.05 702.56 243.12 708.16 243.88C711.532 244.322 714.948 243.491 717.74 241.55C721.164 238.981 723.674 235.381 724.9 231.28C726.663 225.529 726.898 219.419 725.58 213.55V213.55ZM716.75 238.5C715.473 239.562 713.971 240.32 712.358 240.715C710.745 241.11 709.063 241.132 707.44 240.78C703.79 239.802 700.551 237.678 698.2 234.72C692.07 227.6 689.53 216.9 691.3 207.72C692.64 200.72 697.3 192.87 705.48 193.66C709.68 194.07 713.31 196.82 715.98 199.92C719.353 204.038 721.646 208.932 722.65 214.16C724.29 222.22 723.58 232.86 716.75 238.5Z" fill="#4D4D4D"/>
<path d="M636 219.35C634.428 220.441 633.072 221.815 632 223.4C631.11 224.711 630.397 226.133 629.88 227.63C630.359 228.752 631.173 229.698 632.21 230.34C632.482 229.172 632.885 228.038 633.41 226.96C634.638 224.315 636.719 222.159 639.32 220.84C638.4 220.004 637.237 219.482 636 219.35V219.35Z" fill="#0E0D0D"/>
<path d="M652.86 234.71C652.858 235.588 652.785 236.464 652.64 237.33C652.418 238.637 652.021 239.909 651.46 241.11V241.11C649.74 244.71 646.62 247.11 643.05 247.11C637.63 247.11 633.24 241.56 633.24 234.71C633.241 233.46 633.389 232.215 633.68 231V231C634.68 226.88 637.36 223.69 640.68 222.66C641.437 222.419 642.226 222.297 643.02 222.3C648.46 222.3 652.86 227.85 652.86 234.71Z" fill="#0E0D0D"/>
<path d="M641.32 225.28C641.32 226.871 640.688 228.397 639.563 229.523C638.437 230.648 636.911 231.28 635.32 231.28C634.751 231.28 634.185 231.195 633.64 231.03V231.03C633.124 230.882 632.632 230.66 632.18 230.37C631.117 229.666 630.306 228.641 629.864 227.444C629.423 226.248 629.374 224.942 629.725 223.716C630.076 222.49 630.809 221.408 631.817 220.626C632.824 219.845 634.055 219.405 635.33 219.37C635.54 219.37 635.75 219.37 635.95 219.37C637.194 219.498 638.364 220.02 639.29 220.86C639.872 221.363 640.343 221.983 640.67 222.68C641.087 223.484 641.31 224.374 641.32 225.28V225.28Z" fill="white"/>
<path d="M653.15 238.81C653.152 239.324 652.988 239.824 652.684 240.238C652.38 240.653 651.951 240.958 651.46 241.11V241.11C651.23 241.183 650.991 241.22 650.75 241.22C650.273 241.22 649.807 241.079 649.411 240.814C649.015 240.549 648.706 240.173 648.523 239.732C648.341 239.292 648.293 238.807 648.386 238.34C648.479 237.872 648.709 237.443 649.046 237.106C649.383 236.769 649.812 236.539 650.28 236.446C650.747 236.353 651.232 236.401 651.672 236.583C652.113 236.766 652.489 237.075 652.754 237.471C653.019 237.867 653.16 238.333 653.16 238.81H653.15Z" fill="white"/>
<path d="M699.82 208.72H699.77C698.348 210.11 697.287 211.827 696.68 213.72C696.311 214.854 696.063 216.024 695.94 217.21C696.683 218.091 697.708 218.688 698.84 218.9C698.852 218.061 698.936 217.225 699.09 216.4C699.55 213.94 700.84 211.08 703.09 209.85C702.165 209.104 701.008 208.704 699.82 208.72V208.72Z" fill="#0E0D0D"/>
<path d="M714.22 223.72C714.174 224.547 714.047 225.368 713.84 226.17C713.11 229.01 711.4 231.1 709.07 231.59C705.2 232.39 701.07 228.45 699.92 222.79C699.66 221.548 699.56 220.278 699.62 219.01C699.81 215.2 701.55 212.1 704.22 211.21C704.404 211.149 704.591 211.099 704.78 211.06C708.64 210.25 712.78 214.19 713.92 219.86C714.19 221.128 714.291 222.426 714.22 223.72V223.72Z" fill="#0E0D0D"/>
<path d="M722.65 214.17C721.652 208.944 719.366 204.05 716 199.93C713.33 196.83 709.7 194.08 705.5 193.67C697.36 192.88 692.66 200.76 691.32 207.73C689.55 216.9 692.09 227.6 698.22 234.73C700.571 237.688 703.81 239.812 707.46 240.79C709.083 241.142 710.765 241.12 712.378 240.725C713.991 240.33 715.493 239.572 716.77 238.51C723.58 232.86 724.29 222.22 722.65 214.17ZM712.09 235.48C707.28 237.9 702.33 234.96 699.48 230.99C696.688 226.976 695.431 222.093 695.94 217.23C695.119 216.304 694.67 215.107 694.68 213.87C694.68 212.514 695.214 211.213 696.167 210.249C697.12 209.285 698.415 208.736 699.77 208.72C700.774 207.681 702.04 206.934 703.435 206.557C704.829 206.181 706.3 206.188 707.69 206.58C713.06 208.04 716.28 213.67 717.46 218.75C717.488 218.835 717.511 218.922 717.53 219.01V219.19C718.62 224.78 717.81 232.6 712.09 235.48Z" fill="white"/>
<path d="M712.09 235.48C707.28 237.9 702.33 234.96 699.48 230.99C696.688 226.976 695.431 222.093 695.94 217.23C696.683 218.111 697.708 218.708 698.84 218.92C699.096 218.979 699.357 219.01 699.62 219.01C699.56 220.278 699.661 221.548 699.92 222.79C701.11 228.45 705.2 232.39 709.07 231.59C711.4 231.1 713.07 229.01 713.84 226.17C714.17 225.864 714.387 225.455 714.455 225.011C714.524 224.566 714.441 224.112 714.22 223.72C714.291 222.426 714.19 221.128 713.92 219.86C712.73 214.19 708.64 210.25 704.78 211.06C704.591 211.099 704.404 211.149 704.22 211.21C703.919 210.695 703.526 210.241 703.06 209.87C702.146 209.123 701.001 208.717 699.82 208.72H699.77C700.774 207.681 702.04 206.934 703.435 206.557C704.829 206.181 706.3 206.188 707.69 206.58C713.06 208.04 716.28 213.67 717.46 218.75C717.488 218.835 717.511 218.922 717.53 219.01V219.19C718.62 224.78 717.81 232.6 712.09 235.48Z" fill="#6D6D6D"/>
<path d="M705 213.87C705 215.236 704.457 216.546 703.492 217.512C702.526 218.477 701.216 219.02 699.85 219.02H699.65C699.387 219.02 699.126 218.989 698.87 218.93C697.709 218.699 696.662 218.076 695.905 217.166C695.148 216.256 694.726 215.114 694.71 213.93C694.71 212.574 695.244 211.273 696.197 210.309C697.15 209.345 698.445 208.796 699.8 208.78H699.85C701.031 208.777 702.176 209.183 703.09 209.93C703.556 210.301 703.949 210.755 704.25 211.27C704.734 212.051 704.994 212.951 705 213.87V213.87Z" fill="white"/>
<path d="M714.47 224.7C714.465 225.242 714.247 225.76 713.864 226.144C713.48 226.527 712.962 226.745 712.42 226.75C712.056 226.753 711.697 226.659 711.382 226.477C711.066 226.296 710.804 226.033 710.624 225.717C710.443 225.401 710.35 225.042 710.354 224.678C710.357 224.314 710.458 223.958 710.646 223.645C710.833 223.333 711.1 223.076 711.42 222.902C711.739 222.727 712.099 222.64 712.463 222.651C712.827 222.662 713.182 222.769 713.491 222.962C713.8 223.155 714.051 223.427 714.22 223.75C714.381 224.041 714.467 224.367 714.47 224.7Z" fill="white"/>
<path d="M633.66 264.3C633.66 264.3 636.87 260.3 641.08 260.51C645.29 260.72 650.33 263.16 650.55 264.84C650.77 266.52 633.66 264.3 633.66 264.3Z" fill="#B7B7B7"/>
<path d="M611.24 205C611.379 204.319 611.573 203.65 611.82 203C611.919 202.657 612.046 202.322 612.2 202C612.14 202 611.82 202.86 612.2 202.11L612.5 201.47C612.932 200.579 613.416 199.714 613.95 198.88C614.25 198.4 614.57 197.88 614.95 197.48L615.17 197.19C615.53 196.69 614.82 197.62 615.08 197.3C615.34 196.98 615.51 196.77 615.74 196.51C616.621 195.489 617.58 194.54 618.61 193.67C618.76 193.54 619.66 192.83 619.03 193.31L619.85 192.71C620.52 192.24 621.22 191.79 621.94 191.38C622.66 190.97 623.34 190.62 624.06 190.28C624.22 190.21 625.24 189.77 624.68 190C625.19 189.8 625.68 189.6 626.22 189.42C630.865 187.857 635.768 187.206 640.66 187.5C644.52 187.62 644.52 181.62 640.66 181.5C632.06 181.23 623 182.85 616 188.13C611.692 191.358 608.363 195.716 606.38 200.72C606.027 201.568 605.746 202.444 605.54 203.34C605.35 204.107 605.462 204.918 605.853 205.605C606.243 206.291 606.883 206.802 607.64 207.03C608.406 207.242 609.226 207.141 609.918 206.749C610.61 206.357 611.118 205.706 611.33 204.94L611.24 205Z" fill="#0E0D0D"/>
<path d="M695.17 186.12C695.645 185.777 696.146 185.472 696.67 185.21L697.47 184.8C697.79 184.65 698.73 184.3 697.88 184.6C698.69 184.32 699.47 184 700.3 183.76C701.285 183.488 702.288 183.281 703.3 183.14C702.67 183.23 703.3 183.14 703.57 183.14C703.84 183.14 704.14 183.09 704.43 183.08C705.03 183.04 705.63 183.04 706.23 183.08C706.87 183.08 707.5 183.15 708.14 183.21C708.78 183.27 707.9 183.15 708.48 183.21C708.87 183.28 709.25 183.34 709.64 183.43C711.114 183.731 712.557 184.17 713.95 184.74C717.766 186.459 721.244 188.846 724.22 191.79C727.02 194.46 731.22 190.23 728.47 187.55C722.75 182.09 715.85 177.91 707.86 177.14C703.208 176.729 698.532 177.611 694.35 179.69C693.588 180.039 692.861 180.461 692.18 180.95C691.51 181.369 691.026 182.027 690.825 182.791C690.624 183.555 690.723 184.366 691.1 185.06C691.85 186.34 693.9 187.06 695.2 186.13L695.17 186.12Z" fill="#0E0D0D"/>
<path d="M647.51 202.11C637.2 199.49 628.04 206.57 623.72 215.47C618.65 225.93 619.26 239.36 625.54 249.18C628.161 253.501 632.122 256.847 636.82 258.71L637.29 258.87C640.558 258.382 643.892 258.559 647.09 259.39C648.38 259.102 649.634 258.673 650.83 258.11C661.03 253.28 665.77 241.42 665.83 230.7C665.77 219 659.83 205.25 647.51 202.11ZM657.38 234.7C657.3 241.93 653.47 250.24 645.85 252.07C639.41 253.61 633.45 249.47 630.74 243.78C628.368 238.705 628.06 232.908 629.88 227.61C629.501 226.703 629.352 225.716 629.444 224.737C629.536 223.758 629.867 222.817 630.408 221.997C630.95 221.176 631.684 220.501 632.548 220.03C633.411 219.56 634.377 219.309 635.36 219.3C635.57 219.3 635.78 219.3 635.98 219.3C637.704 218.048 639.727 217.272 641.846 217.05C643.965 216.829 646.105 217.171 648.05 218.04C654.32 220.87 657.31 228.11 657.38 234.63V234.7Z" fill="white"/>
<path d="M657.38 234.68C657.3 241.91 653.47 250.22 645.85 252.05C639.41 253.59 633.45 249.45 630.74 243.76C628.368 238.685 628.06 232.888 629.88 227.59C630.359 228.712 631.173 229.658 632.21 230.3C632.662 230.59 633.154 230.812 633.67 230.96C633.379 232.175 633.231 233.42 633.23 234.67C633.23 241.52 637.62 247.07 643.04 247.07C646.61 247.07 649.73 244.67 651.45 241.07C651.821 240.953 652.159 240.749 652.434 240.473C652.709 240.198 652.913 239.86 653.029 239.489C653.145 239.117 653.169 238.723 653.1 238.34C653.03 237.957 652.869 237.597 652.63 237.29C652.775 236.424 652.848 235.548 652.85 234.67C652.85 227.81 648.45 222.26 643.03 222.26C642.236 222.257 641.447 222.379 640.69 222.62C640.363 221.923 639.893 221.303 639.31 220.8C638.384 219.96 637.214 219.438 635.97 219.31C637.694 218.058 639.717 217.282 641.836 217.061C643.955 216.839 646.095 217.181 648.04 218.05C654.32 220.92 657.31 228.16 657.38 234.68Z" fill="#6D6D6D"/>
<path d="M652.39 264.86C651.433 264.258 650.43 263.733 649.39 263.29C648.632 262.964 647.853 262.687 647.06 262.46C644.222 261.628 641.24 261.406 638.31 261.81L637.41 261.96C636.91 262.04 636.41 262.15 635.92 262.27C635.16 262.46 634.41 262.69 633.68 262.95L632.96 263.21L632.67 263.33L632.26 263.53C630.54 264.4 629.02 261.81 630.74 260.94C631.43 260.588 632.141 260.281 632.87 260.02C634.325 259.462 635.838 259.07 637.38 258.85C640.648 258.362 643.982 258.539 647.18 259.37C648.751 259.762 650.279 260.311 651.74 261.01C652.515 261.382 653.27 261.796 654 262.25C655.54 263.29 654 265.89 652.39 264.86Z" fill="#4D4D4D"/>
<path d="M710.26 245.65C710.489 245.479 710.729 245.326 710.98 245.19C711.27 245.03 711.57 244.89 711.87 244.75C711.49 244.93 711.98 244.7 712.12 244.66C712.26 244.62 712.54 244.51 712.75 244.45L713.38 244.29L713.75 244.22C713.75 244.22 714.21 244.17 713.86 244.22C714.389 244.18 714.921 244.18 715.45 244.22H715.81C716.15 244.22 715.7 244.22 716.01 244.22C716.32 244.22 716.63 244.34 716.94 244.43C717.553 244.609 718.141 244.865 718.69 245.19C718.86 245.298 719.051 245.37 719.249 245.403C719.448 245.435 719.652 245.427 719.848 245.38C720.043 245.332 720.228 245.245 720.389 245.124C720.551 245.004 720.686 244.852 720.788 244.678C720.889 244.504 720.955 244.311 720.98 244.111C721.005 243.911 720.99 243.708 720.935 243.514C720.88 243.32 720.787 243.139 720.661 242.982C720.534 242.825 720.378 242.695 720.2 242.6C717.779 241.204 714.908 240.809 712.2 241.5C710.963 241.793 709.795 242.323 708.76 243.06C708.426 243.269 708.185 243.597 708.085 243.978C707.984 244.359 708.033 244.764 708.22 245.11C708.422 245.454 708.753 245.704 709.139 245.805C709.525 245.906 709.935 245.85 710.28 245.65H710.26Z" fill="#4D4D4D"/>
</g>
<defs>
<clipPath id="clip0">
<rect width="1080" height="1080" fill="white"/>
</clipPath>
</defs>
</svg>
