<svg width="1080" height="1080" viewBox="0 0 1080 1080" fill="none" xmlns="http://www.w3.org/2000/svg">
<g clip-path="url(#clip0)">
<path d="M658.14 174V174.09L603 177.57C605.544 176.288 608.229 175.308 611 174.65C613.21 174.03 615.45 173.47 617.71 173.03C619.36 172.71 618.99 170.03 617.31 170.09C615.264 170.188 613.213 170.162 611.17 170.01C609.638 169.929 608.118 169.702 606.63 169.33C606.066 169.195 605.516 169.004 604.99 168.76C604.749 168.637 604.515 168.5 604.29 168.35V168.35L604.23 168.3C604.23 168.24 604.08 168.15 604.07 168.14L604 168C604 168 604 168 604 167.93C604 167.86 604 167.93 604 167.93C604 167.85 604 167.77 603.93 167.68C603.923 167.573 603.923 167.467 603.93 167.36C604.118 166.796 604.433 166.283 604.85 165.86C606.037 164.763 607.482 163.982 609.05 163.59C612.906 162.568 616.894 162.13 620.88 162.29C623.416 162.295 625.949 162.435 628.47 162.71C630.03 162.89 630.41 160.63 629.23 159.92C626.963 158.543 624.822 156.971 622.83 155.22C621.284 153.95 619.936 152.457 618.83 150.79C618.07 149.53 617.61 148.19 618.21 147.1C618.671 146.414 619.278 145.837 619.986 145.41C620.694 144.983 621.488 144.717 622.31 144.63C624.063 144.505 625.811 144.932 627.31 145.85C631 147.85 633.96 151.17 636.53 154.43C638.228 156.561 639.772 158.81 641.15 161.16C642.15 162.85 644.58 161.36 643.74 159.64C641.56 155.211 640.012 150.499 639.14 145.64C638.7 143.03 638.39 139.64 639.93 137.37C641.24 135.43 644.36 134.96 646.32 135.24C651.09 135.91 653.65 140.94 655.11 145.39C656.832 151.127 657.803 157.063 658 163.05C658.232 166.695 658.279 170.35 658.14 174V174Z" fill="#898989"/>
<path d="M604.28 168.33L604.22 168.28L604.28 168.33Z" fill="#4D4D4D"/>
<path d="M661.07 164C660.896 157.524 659.887 151.098 658.07 144.88C656.43 139.77 653.46 133.79 647.72 132.47C646.257 132.109 644.734 132.055 643.249 132.312C641.764 132.568 640.348 133.129 639.09 133.96C636.3 136.04 635.66 139.69 635.82 142.96C635.961 145.441 636.356 147.9 637 150.3C634.716 147.47 631.938 145.078 628.8 143.24C624.8 141.06 619.74 140.83 616.43 144.42C613.12 148.01 616 152.64 618.79 155.54C620.107 156.9 621.521 158.164 623.02 159.32C622.37 159.32 621.71 159.32 621.02 159.32C616.564 159.112 612.103 159.626 607.81 160.84C604.81 161.84 600.04 164.46 600.87 168.41C601.46 171.23 604.73 172.18 607.42 172.63C604.369 173.445 601.503 174.84 598.98 176.74C597.49 177.97 599.62 180.08 601.1 178.86C601.67 178.396 602.279 177.981 602.92 177.62C605.464 176.338 608.149 175.358 610.92 174.7C613.13 174.08 615.37 173.52 617.63 173.08C619.28 172.76 618.91 170.08 617.23 170.14C615.184 170.238 613.133 170.212 611.09 170.06C609.558 169.979 608.038 169.752 606.55 169.38C605.986 169.245 605.436 169.054 604.91 168.81C604.669 168.687 604.435 168.55 604.21 168.4V168.4L604.15 168.35C604.15 168.29 604 168.2 603.99 168.19L604 168C604 168 604 168 604 167.93C604 167.86 604 167.93 604 167.93C604 167.85 604 167.77 603.93 167.68C603.923 167.573 603.923 167.467 603.93 167.36C604.118 166.796 604.433 166.283 604.85 165.86C606.037 164.763 607.482 163.982 609.05 163.59C612.906 162.568 616.894 162.13 620.88 162.29C623.416 162.295 625.949 162.435 628.47 162.71C630.03 162.89 630.41 160.63 629.23 159.92C626.963 158.543 624.822 156.971 622.83 155.22C621.284 153.95 619.936 152.457 618.83 150.79C618.07 149.53 617.61 148.19 618.21 147.1C618.671 146.414 619.278 145.837 619.986 145.41C620.694 144.983 621.488 144.717 622.31 144.63C624.063 144.505 625.811 144.932 627.31 145.85C631 147.85 633.96 151.17 636.53 154.43C638.228 156.561 639.772 158.81 641.15 161.16C642.15 162.85 644.58 161.36 643.74 159.64C641.56 155.211 640.012 150.499 639.14 145.64C638.7 143.03 638.39 139.64 639.93 137.37C641.24 135.43 644.36 134.96 646.32 135.24C651.09 135.91 653.65 140.94 655.11 145.39C656.832 151.127 657.803 157.063 658 163.05C658.225 166.692 658.265 170.344 658.12 173.99V174.08C658.12 175.92 661.02 175.89 661.12 173.99C661.3 170.67 661.23 167.33 661.07 164ZM617.07 171.59H617.27H617.07Z" fill="#4D4D4D"/>
<g style="mix-blend-mode:screen">
<g style="mix-blend-mode:screen">
<path d="M629.43 163.69C626.909 163.415 624.376 163.275 621.84 163.27C617.854 163.11 613.866 163.548 610.01 164.57C608.442 164.962 606.997 165.743 605.81 166.84C605.393 167.263 605.078 167.776 604.89 168.34C604.883 168.447 604.883 168.553 604.89 168.66C604.704 168.563 604.524 168.456 604.35 168.34V168.34L604.29 168.29C604.29 168.23 604.14 168.14 604.13 168.13L604 168C604 168 604 168 604 167.93C604 167.86 604 167.93 604 167.93C604 167.85 604 167.77 603.93 167.68C603.923 167.573 603.923 167.467 603.93 167.36C604.118 166.796 604.433 166.283 604.85 165.86C606.037 164.763 607.482 163.982 609.05 163.59C612.906 162.568 616.894 162.13 620.88 162.29C623.416 162.295 625.949 162.435 628.47 162.71C629.64 162.85 630.15 161.6 629.83 160.71L630.23 160.96C631.37 161.61 631 163.87 629.43 163.69Z" fill="#E5E5E5"/>
</g>
<g style="mix-blend-mode:screen">
<path d="M627.31 145.83C629.424 147.032 631.343 148.55 633 150.33C631.593 148.967 630.017 147.791 628.31 146.83C626.811 145.912 625.063 145.486 623.31 145.61C622.488 145.697 621.694 145.964 620.986 146.39C620.278 146.817 619.671 147.394 619.21 148.08C618.61 149.17 619.07 150.51 619.83 151.77C620.369 152.638 620.996 153.449 621.7 154.19C620.597 153.181 619.632 152.031 618.83 150.77C618.07 149.51 617.61 148.17 618.21 147.08C618.671 146.394 619.278 145.817 619.986 145.39C620.694 144.964 621.488 144.697 622.31 144.61C624.063 144.486 625.811 144.912 627.31 145.83V145.83Z" fill="#E5E5E5"/>
</g>
<g style="mix-blend-mode:screen">
<path d="M651.36 138.16C650.243 137.145 648.852 136.48 647.36 136.25C645.36 135.97 642.28 136.44 640.97 138.38C639.43 140.68 639.74 144.04 640.18 146.65C641.052 151.509 642.6 156.221 644.78 160.65C645.62 162.37 643.17 163.86 642.19 162.17L642 161.85C642.288 161.922 642.592 161.911 642.874 161.816C643.156 161.722 643.405 161.549 643.592 161.318C643.779 161.087 643.896 160.807 643.93 160.511C643.963 160.216 643.911 159.917 643.78 159.65C641.6 155.221 640.052 150.509 639.18 145.65C638.74 143.04 638.43 139.65 639.97 137.38C641.28 135.44 644.4 134.97 646.36 135.25C648.326 135.577 650.105 136.612 651.36 138.16V138.16Z" fill="#E5E5E5"/>
</g>
</g>
</g>
<defs>
<clipPath id="clip0">
<rect width="1080" height="1080" fill="white"/>
</clipPath>
</defs>
</svg>
