<svg width="1080" height="1080" viewBox="0 0 1080 1080" fill="none" xmlns="http://www.w3.org/2000/svg">
<g clip-path="url(#clip0)">
<path d="M284.68 521.38C284.576 521.337 284.478 521.28 284.39 521.21C284.262 521.107 284.155 520.98 284.076 520.836C283.997 520.692 283.947 520.533 283.93 520.37C283.648 518.643 283.24 516.938 282.71 515.27C282.02 513.02 281.12 510.51 279.41 508.81C279.096 508.456 278.703 508.181 278.262 508.008C277.822 507.835 277.346 507.769 276.875 507.815C276.404 507.861 275.951 508.017 275.552 508.272C275.153 508.527 274.82 508.872 274.58 509.28C273.07 511.28 272.99 514.28 273.05 516.72C273.065 518.19 273.209 519.655 273.48 521.1C273.553 521.416 273.523 521.747 273.394 522.045C273.265 522.343 273.044 522.592 272.763 522.755C272.483 522.918 272.157 522.987 271.834 522.952C271.512 522.917 271.209 522.78 270.97 522.56C268.941 520.468 266.762 518.526 264.45 516.75C257.92 511.65 246.6 504.63 238.85 511.36C237.912 512.069 237.176 513.012 236.716 514.095C236.256 515.178 236.089 516.362 236.23 517.53C236.667 520.044 237.646 522.433 239.1 524.53C240.948 527.466 243.162 530.154 245.69 532.53C245.89 532.743 246.025 533.01 246.077 533.297C246.13 533.585 246.099 533.882 245.987 534.152C245.875 534.422 245.687 534.655 245.447 534.821C245.206 534.987 244.922 535.081 244.63 535.09C241.853 535.221 239.089 535.555 236.36 536.09C232.08 536.87 227.64 537.99 223.94 540.35C222.312 541.296 220.985 542.683 220.11 544.35C219.752 545.116 219.548 545.945 219.51 546.79C219.474 547.305 219.639 547.814 219.97 548.21C220.97 549.4 222.83 549.93 224.44 550.28C226.561 550.705 228.717 550.926 230.88 550.94C232.42 550.94 233.97 550.94 235.52 550.94C236.708 550.73 237.914 550.643 239.12 550.68C241.12 550.53 241 553.47 239.12 553.68C238.24 553.77 237.35 553.85 236.45 553.9C235.889 554.373 235.286 554.795 234.65 555.16C232.162 557.001 229.903 559.133 227.92 561.51C227.017 562.547 226.336 563.759 225.92 565.07C225.754 565.537 225.738 566.045 225.874 566.522C226.01 566.999 226.292 567.421 226.68 567.73C229.1 569.85 233.4 568.84 236.11 568C239.66 566.89 243.36 565 245.7 562C246.9 560.48 249.01 562.62 247.82 564.12C246.25 566.022 244.311 567.587 242.12 568.72C240.305 569.704 238.382 570.476 236.39 571.02C235.87 571.16 235.34 571.29 234.83 571.4C231.12 572.19 226.2 572.33 223.74 568.86C221.61 565.86 223.54 562.24 225.51 559.73C227.226 557.603 229.171 555.671 231.31 553.97C230.2 553.97 229.1 553.89 228.01 553.8C224.22 553.48 218.26 552.8 216.8 548.52C216.11 546.52 216.8 544.02 217.88 542.24C219.131 540.278 220.849 538.656 222.88 537.52C227 535.02 231.88 533.8 236.6 533.02C238.17 532.76 239.75 532.53 241.34 532.36C238.864 529.74 236.779 526.776 235.15 523.56C233.778 521.088 233.149 518.271 233.34 515.45C233.7 512.37 235.59 510.12 238.02 508.34C242.48 505.1 248.21 505.22 253.24 506.94C258.279 508.824 262.963 511.549 267.09 515C268.09 515.8 269.09 516.64 270.09 517.5C270.045 516.614 270.045 515.726 270.09 514.84C270.23 511.84 270.85 508.38 273.25 506.33C274.384 505.324 275.857 504.784 277.372 504.819C278.888 504.854 280.334 505.462 281.42 506.52C283.58 508.52 284.74 511.58 285.61 514.33C286.153 516.033 286.567 517.775 286.85 519.54C286.896 519.823 286.868 520.112 286.769 520.381C286.67 520.65 286.504 520.888 286.285 521.074C286.067 521.259 285.804 521.384 285.523 521.438C285.242 521.492 284.951 521.472 284.68 521.38V521.38Z" fill="#4D4D4D"/>
<path d="M250.8 577.54C250.536 579.755 249.672 581.857 248.304 583.619C246.935 585.381 245.111 586.736 243.03 587.54C242.703 587.664 242.369 587.771 242.03 587.86C240.469 588.342 238.81 588.421 237.21 588.089C235.61 587.756 234.12 587.024 232.88 585.96C230.77 583.96 231.19 580.81 232.13 578.36C233.195 575.72 234.604 573.232 236.32 570.96C237.459 569.405 238.68 567.913 239.98 566.49C241.28 565.06 243.4 567.19 242.1 568.61C241.04 569.8 240.04 571.07 239.23 572.16C237.646 574.216 236.304 576.447 235.23 578.81C234.966 579.432 234.752 580.074 234.59 580.73C234.465 581.134 234.408 581.557 234.42 581.98C234.42 582.07 234.42 582.45 234.42 582.54C234.454 582.709 234.497 582.876 234.55 583.04C234.55 583.04 234.55 583.04 234.55 583.04C234.55 583.04 234.75 583.4 234.8 583.48H234.86L235.03 583.66C237.03 585.5 240.15 585.4 242.49 584.34C243.893 583.717 245.115 582.747 246.042 581.523C246.969 580.299 247.571 578.86 247.79 577.34C247.8 576.945 247.961 576.57 248.241 576.291C248.52 576.011 248.895 575.85 249.29 575.84C249.505 575.838 249.719 575.883 249.915 575.97C250.112 576.058 250.288 576.186 250.431 576.347C250.574 576.508 250.681 576.698 250.745 576.904C250.808 577.109 250.827 577.326 250.8 577.54V577.54Z" fill="#4D4D4D"/>
<path d="M264.72 602.81C262.28 603.315 259.74 602.961 257.53 601.81C255.902 600.783 254.669 599.236 254.03 597.42C253.665 596.452 253.413 595.446 253.28 594.42C252.82 594.85 252.35 595.26 251.87 595.64C249.87 597.22 247.48 598.78 244.87 598.64C243.696 598.646 242.566 598.194 241.72 597.379C240.874 596.565 240.379 595.453 240.34 594.28C240.2 592.05 241.15 589.78 242.09 587.8L242.16 587.64C242.726 586.43 243.374 585.261 244.1 584.14C244.287 583.858 244.562 583.646 244.882 583.536C245.202 583.426 245.549 583.425 245.87 583.532C246.19 583.638 246.467 583.848 246.657 584.128C246.847 584.408 246.939 584.742 246.92 585.08C246.879 585.283 246.801 585.476 246.69 585.65C245.983 586.747 245.348 587.89 244.79 589.07C243.936 590.606 243.44 592.315 243.34 594.07C243.316 594.297 243.349 594.527 243.436 594.739C243.523 594.95 243.662 595.136 243.84 595.28C244.179 595.462 244.552 595.573 244.935 595.606C245.319 595.638 245.705 595.592 246.07 595.47C249.07 594.7 251.79 591.93 253.71 589.55C253.922 589.345 254.19 589.206 254.48 589.151C254.77 589.097 255.07 589.128 255.342 589.242C255.615 589.356 255.848 589.547 256.013 589.792C256.178 590.037 256.267 590.325 256.27 590.62C256.021 592.366 256.164 594.146 256.69 595.83C257.033 597.011 257.732 598.059 258.69 598.83C260.135 599.761 261.876 600.118 263.57 599.83L263.98 599.78C264.228 599.73 264.484 599.736 264.729 599.797C264.975 599.857 265.204 599.971 265.4 600.13C265.615 600.307 265.765 600.549 265.83 600.82C265.903 601.023 265.932 601.24 265.915 601.455C265.897 601.67 265.834 601.879 265.728 602.068C265.623 602.256 265.479 602.42 265.305 602.548C265.131 602.676 264.931 602.766 264.72 602.81Z" fill="#4D4D4D"/>
<path d="M284.39 521.21L263.51 600C261.816 600.288 260.075 599.931 258.63 599C257.672 598.229 256.973 597.181 256.63 596C256.104 594.316 255.961 592.536 256.21 590.79C256.207 590.495 256.118 590.207 255.953 589.962C255.788 589.717 255.555 589.526 255.282 589.412C255.01 589.298 254.71 589.267 254.42 589.321C254.13 589.376 253.862 589.515 253.65 589.72C251.73 592.1 249.05 594.87 246.01 595.64C245.645 595.762 245.259 595.808 244.875 595.776C244.492 595.743 244.119 595.632 243.78 595.45C243.602 595.306 243.463 595.12 243.376 594.909C243.289 594.697 243.256 594.467 243.28 594.24C243.38 592.485 243.876 590.776 244.73 589.24C245.288 588.06 245.923 586.917 246.63 585.82C246.741 585.646 246.819 585.453 246.86 585.25C249.03 583.267 250.414 580.569 250.76 577.65C250.757 577.253 250.599 576.873 250.318 576.592C250.037 576.311 249.657 576.153 249.26 576.15C248.865 576.16 248.49 576.321 248.211 576.601C247.931 576.88 247.77 577.255 247.76 577.65C247.541 579.17 246.939 580.609 246.012 581.833C245.085 583.057 243.863 584.027 242.46 584.65C240.12 585.71 236.99 585.81 235 583.97L234.83 583.79H234.77C234.72 583.71 234.58 583.43 234.52 583.35C234.46 583.27 234.52 583.35 234.52 583.35C234.467 583.186 234.424 583.019 234.39 582.85V582.85C234.39 582.76 234.39 582.38 234.39 582.29C234.378 581.867 234.435 581.444 234.56 581.04C234.722 580.384 234.936 579.742 235.2 579.12C236.274 576.757 237.616 574.526 239.2 572.47C240.01 571.38 241.01 570.11 242.07 568.92C244.261 567.787 246.2 566.222 247.77 564.32C248.96 562.82 246.85 560.68 245.65 562.2C243.31 565.2 239.65 567.05 236.06 568.2C233.35 569.04 229.06 570.05 226.63 567.93C226.242 567.621 225.96 567.199 225.824 566.722C225.688 566.245 225.704 565.737 225.87 565.27C226.286 563.959 226.967 562.747 227.87 561.71C229.853 559.333 232.112 557.201 234.6 555.36C235.236 554.995 235.839 554.573 236.4 554.1C237.3 554.1 238.19 553.97 239.07 553.88C240.95 553.67 241.07 550.73 239.07 550.88C237.864 550.843 236.658 550.93 235.47 551.14V551.14C233.92 551.22 232.37 551.23 230.83 551.14C228.667 551.126 226.511 550.905 224.39 550.48C222.78 550.13 220.92 549.6 219.92 548.41C219.589 548.014 219.424 547.505 219.46 546.99C219.498 546.145 219.702 545.316 220.06 544.55C220.935 542.883 222.262 541.496 223.89 540.55C227.59 538.19 232.03 537.07 236.31 536.29C239.039 535.755 241.803 535.421 244.58 535.29C244.872 535.281 245.156 535.187 245.397 535.021C245.637 534.855 245.825 534.622 245.937 534.352C246.049 534.082 246.08 533.785 246.027 533.497C245.975 533.21 245.84 532.943 245.64 532.73C243.112 530.354 240.898 527.666 239.05 524.73C237.596 522.633 236.617 520.244 236.18 517.73C236.039 516.562 236.206 515.378 236.666 514.295C237.126 513.212 237.862 512.269 238.8 511.56C246.55 504.83 257.87 511.85 264.4 516.95C266.712 518.726 268.891 520.668 270.92 522.76C271.159 522.98 271.462 523.117 271.784 523.152C272.107 523.187 272.433 523.118 272.713 522.955C272.994 522.792 273.215 522.543 273.344 522.245C273.473 521.947 273.503 521.616 273.43 521.3C273.159 519.855 273.015 518.39 273 516.92C272.94 514.49 273 511.51 274.53 509.48C274.77 509.072 275.103 508.727 275.502 508.472C275.901 508.217 276.354 508.061 276.825 508.015C277.296 507.969 277.772 508.035 278.212 508.208C278.653 508.381 279.046 508.656 279.36 509.01C281.07 510.71 281.97 513.22 282.66 515.47C283.19 517.138 283.598 518.843 283.88 520.57C283.973 520.835 284.153 521.061 284.39 521.21V521.21Z" fill="#898989"/>
<path d="M285 518.9C285 519.12 284.86 519.99 284.67 521.38C282.94 534.1 274.78 590.7 265.33 600.27C264.736 600.949 263.941 601.422 263.06 601.62L263.5 599.97L284.38 521.21L285 518.9Z" fill="#4D4D4D"/>
<g style="mix-blend-mode:screen">
<g style="mix-blend-mode:screen">
<path d="M281 511C280.364 510.829 279.69 510.867 279.077 511.106C278.464 511.345 277.943 511.774 277.59 512.33C276.08 514.33 276 517.33 276.06 519.77C276.075 521.24 276.219 522.705 276.49 524.15C276.563 524.466 276.533 524.797 276.404 525.095C276.274 525.393 276.054 525.642 275.773 525.805C275.493 525.968 275.167 526.037 274.845 526.002C274.522 525.967 274.219 525.83 273.98 525.61C271.951 523.518 269.772 521.576 267.46 519.8C260.93 514.7 249.61 507.68 241.86 514.41C240.922 515.119 240.186 516.062 239.726 517.145C239.266 518.228 239.099 519.412 239.24 520.58C239.677 523.094 240.656 525.483 242.11 527.58C243.958 530.516 246.172 533.204 248.7 535.58C248.9 535.793 249.035 536.06 249.087 536.347C249.14 536.635 249.109 536.932 248.997 537.202C248.885 537.473 248.697 537.705 248.457 537.871C248.216 538.037 247.932 538.131 247.64 538.14C244.863 538.271 242.099 538.605 239.37 539.14C235.09 539.92 230.65 541.04 226.95 543.4C225.322 544.346 223.995 545.733 223.12 547.4C222.767 548.157 222.563 548.975 222.52 549.81C221.549 549.532 220.671 548.996 219.98 548.26C219.649 547.864 219.484 547.355 219.52 546.84C219.558 545.995 219.762 545.166 220.12 544.4C220.995 542.733 222.322 541.346 223.95 540.4C227.65 538.04 232.09 536.92 236.37 536.14C239.099 535.605 241.863 535.271 244.64 535.14C244.932 535.131 245.216 535.037 245.457 534.871C245.697 534.705 245.885 534.473 245.997 534.202C246.109 533.932 246.14 533.635 246.087 533.347C246.035 533.06 245.9 532.793 245.7 532.58C243.172 530.204 240.958 527.516 239.11 524.58C237.656 522.483 236.677 520.094 236.24 517.58C236.099 516.412 236.266 515.228 236.726 514.145C237.186 513.062 237.922 512.119 238.86 511.41C246.61 504.68 257.93 511.7 264.46 516.8C266.772 518.576 268.951 520.518 270.98 522.61C271.219 522.83 271.522 522.967 271.845 523.002C272.167 523.037 272.493 522.968 272.773 522.805C273.054 522.642 273.274 522.393 273.404 522.095C273.533 521.797 273.563 521.466 273.49 521.15C273.219 519.705 273.075 518.24 273.06 516.77C273 514.34 273.06 511.36 274.59 509.33C274.83 508.922 275.163 508.577 275.562 508.322C275.961 508.068 276.414 507.911 276.885 507.865C277.356 507.819 277.832 507.885 278.272 508.058C278.713 508.231 279.106 508.506 279.42 508.86C280.046 509.494 280.578 510.215 281 511V511Z" fill="#E5E5E5"/>
</g>
</g>
<g style="mix-blend-mode:multiply" opacity="0.5">
<path d="M242.5 584.52C240.16 585.58 237.03 585.68 235.04 583.84L234.87 583.66H234.81C234.76 583.58 234.62 583.3 234.56 583.22C234.5 583.14 234.56 583.22 234.56 583.22C234.507 583.056 234.464 582.889 234.43 582.72V582.72C234.43 582.63 234.43 582.25 234.43 582.16C234.418 581.737 234.475 581.314 234.6 580.91C234.762 580.254 234.976 579.612 235.24 578.99C236.314 576.627 237.656 574.396 239.24 572.34C239.89 571.47 240.66 570.48 241.49 569.51C240.43 573.57 240.49 576.9 243.76 576.51C249.5 575.88 250.84 574.72 251.14 574.13C251.05 574.67 250.88 575.75 250.72 577.07C250.595 576.801 250.398 576.572 250.151 576.408C249.904 576.244 249.616 576.151 249.32 576.14C248.925 576.15 248.55 576.311 248.271 576.591C247.991 576.87 247.83 577.245 247.82 577.64C247.58 579.14 246.967 580.556 246.037 581.758C245.108 582.96 243.892 583.91 242.5 584.52V584.52Z" fill="#2D2D2D"/>
</g>
<g style="mix-blend-mode:multiply">
<path d="M251.12 574C251.12 573.76 251.19 573.63 251.19 573.63C251.209 573.758 251.185 573.888 251.12 574V574Z" fill="#61A7C1"/>
</g>
<g style="mix-blend-mode:multiply" opacity="0.5">
<path d="M263 600C261.471 600.195 259.922 599.84 258.63 599C257.672 598.229 256.973 597.181 256.63 596C256.104 594.316 255.961 592.536 256.21 590.79C256.207 590.495 256.118 590.207 255.953 589.962C255.788 589.717 255.555 589.526 255.282 589.412C255.01 589.298 254.71 589.267 254.42 589.321C254.13 589.376 253.862 589.515 253.65 589.72C251.73 592.1 249.05 594.87 246.01 595.64C245.645 595.762 245.259 595.808 244.875 595.776C244.492 595.743 244.119 595.632 243.78 595.45C243.602 595.306 243.463 595.12 243.376 594.909C243.289 594.697 243.256 594.467 243.28 594.24C243.38 592.485 243.876 590.776 244.73 589.24C245.288 588.06 245.923 586.917 246.63 585.82C246.741 585.646 246.819 585.453 246.86 585.25C248.594 583.669 249.834 581.62 250.43 579.35C250.08 583.43 250.15 588.2 252.43 587.78C256.35 587.07 257.35 584.64 257.35 584.64C257.35 584.64 259.09 592.32 262.9 593.25C262.89 595.43 262.92 597.72 263 600Z" fill="#2D2D2D"/>
</g>
<path d="M247.79 564.06C246.22 565.962 244.281 567.527 242.09 568.66L241.47 569.38C241.922 567.683 242.473 566.013 243.12 564.38V564.38C244.064 563.664 244.918 562.834 245.66 561.91C246.87 560.42 249 562.56 247.79 564.06Z" fill="#4D4D4D"/>
<path d="M251.12 574C251.12 573.76 251.19 573.63 251.19 573.63C251.209 573.758 251.185 573.888 251.12 574V574Z" fill="#61A7C1"/>
<path d="M246 561.63C245.879 561.717 245.771 561.822 245.68 561.94C243.34 564.94 239.68 566.79 236.09 567.94C233.38 568.78 229.09 569.79 226.66 567.67C226.272 567.361 225.99 566.939 225.854 566.462C225.718 565.985 225.734 565.477 225.9 565.01C226.316 563.699 226.997 562.487 227.9 561.45L228.03 561.29C227.18 563.54 226.44 567.4 232.03 566.29C236.854 565.293 241.544 563.729 246 561.63V561.63Z" fill="#898989"/>
<g style="mix-blend-mode:multiply" opacity="0.5">
<path d="M246 561.63C245.879 561.717 245.771 561.822 245.68 561.94C243.34 564.94 239.68 566.79 236.09 567.94C233.38 568.78 229.09 569.79 226.66 567.67C226.272 567.361 225.99 566.939 225.854 566.462C225.718 565.985 225.734 565.477 225.9 565.01C226.316 563.699 226.997 562.487 227.9 561.45L228.03 561.29C227.18 563.54 226.44 567.4 232.03 566.29C236.854 565.293 241.544 563.729 246 561.63V561.63Z" fill="#2D2D2D"/>
</g>
</g>
<defs>
<clipPath id="clip0">
<rect width="1080" height="1080" fill="white"/>
</clipPath>
</defs>
</svg>
