<svg width="1080" height="1080" viewBox="0 0 1080 1080" fill="none" xmlns="http://www.w3.org/2000/svg">
<g clip-path="url(#clip0)">
<path d="M800.72 322.89L799.72 323.7L799.65 323.75L799.49 323.87L799.04 324.22L797.8 325.15C796.88 325.82 795.96 326.48 795.03 327.15C789.887 330.776 784.46 333.98 778.8 336.73C767.69 342.05 752.64 346.44 741.8 338.68C740.35 333.58 742.41 327.83 744.52 323.2C745.843 320.259 747.402 317.43 749.18 314.74C761 309.51 774.08 310.55 785.93 315.17C791.113 317.226 796.07 319.813 800.72 322.89V322.89Z" fill="#0C0C0C"/>
<path d="M794.64 315.89C786.991 311.713 778.575 309.131 769.9 308.3C762.594 307.718 755.255 308.898 748.5 311.74C737.71 299.52 728.16 284.04 729.58 267.13C729.889 263.547 730.704 260.025 732 256.67L729.67 254.46C725.695 264.428 725.45 275.496 728.98 285.63C731.237 292.143 734.427 298.293 738.45 303.89L737.2 303.04C728.167 296.793 718.026 292.327 707.32 289.88C701.002 288.499 694.507 288.111 688.07 288.73C684.601 289.09 681.17 289.759 677.82 290.73C674.5 291.73 671.31 293.06 668 294.1C657.42 297.43 645.75 298.94 635.09 295.1C624.27 291.18 616.79 281.97 612 271.82C611.39 270.52 610.83 269.21 610.3 267.88C612.358 266.14 613.984 263.946 615.05 261.47C615.355 260.823 615.612 260.154 615.82 259.47C615.888 259.099 615.814 258.715 615.614 258.395C615.413 258.076 615.1 257.843 614.736 257.742C614.372 257.642 613.984 257.681 613.648 257.853C613.312 258.025 613.052 258.316 612.92 258.67C612.801 259.074 612.661 259.471 612.5 259.86V259.86V259.94L612.38 260.19C612.27 260.43 612.16 260.67 612.04 260.9C611.77 261.43 611.48 261.95 611.16 262.45L610.62 263.24L610.41 263.52L610.1 263.9C609.62 264.471 609.095 265.003 608.53 265.49C608.31 265.68 608.08 265.86 607.83 266.05C607.614 266.127 607.422 266.258 607.27 266.43V266.43L606.79 266.72C606.099 267.121 605.36 267.434 604.59 267.65C602.314 268.25 599.924 268.268 597.64 267.7C595.76 267.28 594.96 270.17 596.85 270.59C600.521 271.546 604.411 271.192 607.85 269.59C612.2 280.1 618.85 290.03 629 295.59C638.83 300.96 650.3 301.29 661.08 299.07C664.165 298.418 667.21 297.59 670.2 296.59C673.53 295.48 676.77 294.14 680.2 293.25C686.658 291.573 693.362 291.058 700 291.73C711.45 292.89 722.41 297.35 732.16 303.33C737.126 306.392 741.811 309.89 746.16 313.78C744.373 316.542 742.821 319.449 741.52 322.47C739.75 326.47 738.11 331.22 738.27 335.77C738.82 336.23 739.36 336.71 739.9 337.19C740.488 337.714 741.106 338.205 741.75 338.66C740.3 333.56 742.36 327.81 744.47 323.18C745.793 320.239 747.352 317.41 749.13 314.72C760.95 309.49 774.03 310.53 785.88 315.15C791.088 317.208 796.069 319.802 800.74 322.89L801.46 322.32L794.64 315.89ZM723.87 249L723.45 248.6C723.166 248.865 722.79 249.009 722.401 249.002C722.012 248.995 721.642 248.838 721.367 248.563C721.092 248.288 720.935 247.918 720.928 247.529C720.921 247.14 721.065 246.764 721.33 246.48L721.76 246.04C719.316 246.104 716.877 245.787 714.53 245.1C711.853 244.302 709.287 243.173 706.89 241.74C705.98 241.2 705.09 240.63 704.23 240.01C703.689 239.648 703.169 239.258 702.67 238.84L702.09 238.35C700.66 237.05 698.53 239.17 699.97 240.47C706.22 246.14 715.31 249.82 723.87 249Z" fill="white"/>
<path d="M746.14 313.78C744.353 316.542 742.801 319.449 741.5 322.47C739.73 326.47 738.09 331.22 738.25 335.77C735.612 333.377 732.658 331.358 729.47 329.77C725.621 327.974 721.521 326.777 717.31 326.22C708.49 324.99 699.48 326.08 690.87 328.17C682.855 330.186 675.042 332.935 667.53 336.38C662.53 338.63 657.84 341.49 652.68 343.03C640.99 346.51 628.06 345.49 616.68 341.31C599.87 335.13 587.1 321.72 578.68 306.2C569.25 288.871 565.444 269.038 567.79 249.45C569.99 231.89 577.63 214.8 590.32 202.32C596.77 195.841 604.544 190.833 613.11 187.64C622.29 184.445 632.155 183.755 641.69 185.64C649.675 187.223 657.36 190.058 664.46 194.04C667.276 195.566 670.013 197.235 672.66 199.04C674.51 200.3 676.16 201.52 677.73 202.8C678.32 203.28 678.92 203.8 679.48 204.28C679.693 204.48 679.96 204.615 680.247 204.667C680.535 204.72 680.832 204.688 681.102 204.577C681.373 204.465 681.605 204.277 681.771 204.036C681.937 203.796 682.031 203.512 682.04 203.22C682.04 203.27 682.04 203.3 682.04 203.34C682.04 203.15 682.12 202.83 682.15 202.69C682.28 201.96 682.44 201.24 682.62 200.52C683.148 198.347 683.919 196.24 684.92 194.24C687.63 188.91 692.23 185.02 698.5 185.11C703.07 185.17 707.59 186.97 711.5 189.19C715.535 191.47 719.077 194.53 721.92 198.19C727.173 205.174 729.984 213.691 729.92 222.43C729.92 230.84 727.54 239.79 721.67 246.03C719.226 246.094 716.787 245.777 714.44 245.09C711.763 244.292 709.197 243.163 706.8 241.73C705.89 241.19 705 240.62 704.14 240C703.599 239.638 703.079 239.248 702.58 238.83L702 238.34C700.57 237.04 698.44 239.16 699.88 240.46C706.16 246.14 715.25 249.82 723.81 248.96C724.898 248.852 725.977 248.668 727.04 248.41C730.006 247.629 732.805 246.314 735.3 244.53C734.132 246.112 733.054 247.758 732.07 249.46C731.143 251.069 730.328 252.739 729.63 254.46C725.655 264.428 725.41 275.496 728.94 285.63C731.197 292.143 734.387 298.293 738.41 303.89L737.16 303.04C728.127 296.793 717.986 292.327 707.28 289.88C700.962 288.499 694.467 288.111 688.03 288.73C684.561 289.09 681.13 289.759 677.78 290.73C674.46 291.73 671.27 293.06 667.96 294.1C657.38 297.43 645.71 298.94 635.05 295.1C624.23 291.18 616.75 281.97 611.96 271.82C611.35 270.52 610.79 269.21 610.26 267.88C612.318 266.14 613.945 263.946 615.01 261.47C615.315 260.823 615.572 260.154 615.78 259.47C615.848 259.099 615.775 258.715 615.574 258.395C615.373 258.076 615.06 257.843 614.696 257.742C614.332 257.642 613.944 257.681 613.608 257.853C613.272 258.025 613.012 258.316 612.88 258.67C612.761 259.074 612.621 259.471 612.46 259.86V259.86V259.94L612.34 260.19C612.23 260.43 612.12 260.67 612 260.9C611.73 261.43 611.44 261.95 611.12 262.45L610.58 263.24L610.37 263.52L610.06 263.9C609.58 264.471 609.055 265.003 608.49 265.49C608.27 265.68 608.04 265.86 607.79 266.05C607.574 266.127 607.382 266.258 607.23 266.43L606.75 266.72C606.059 267.121 605.319 267.434 604.55 267.65C602.274 268.251 599.884 268.268 597.6 267.7C595.72 267.28 594.92 270.17 596.81 270.59C600.481 271.546 604.371 271.192 607.81 269.59C612.16 280.1 618.81 290.03 628.96 295.59C638.79 300.96 650.26 301.29 661.04 299.07C664.125 298.418 667.17 297.59 670.16 296.59C673.49 295.48 676.73 294.14 680.16 293.25C686.63 291.568 693.349 291.053 700 291.73C711.45 292.89 722.41 297.35 732.16 303.33C737.119 306.394 741.798 309.891 746.14 313.78V313.78Z" fill="#D8D8D8"/>
<path d="M803.59 324.41L803.3 324.64C802.83 325.03 802.3 325.42 801.86 325.79C792.28 333.25 781.49 339.79 769.86 343.49C763.11 345.63 755.73 346.73 748.74 345.06C745.315 344.25 742.101 342.723 739.31 340.58C737.6 339.27 736.14 337.7 734.45 336.36C732.781 335.043 730.985 333.894 729.09 332.93C721.2 328.85 712.03 328.18 703.31 329.03C694.487 330.048 685.835 332.209 677.57 335.46C673.95 336.833 670.38 338.337 666.86 339.97C664.19 341.22 661.6 342.65 658.92 343.89C654.05 346.042 648.856 347.37 643.55 347.82C629.429 349.086 615.288 345.632 603.34 338C586.63 327.4 575.12 309.73 569.01 291.17C562.819 272.577 562.529 252.524 568.18 233.76C573.47 216.69 584.1 201.24 599.18 191.37C607.682 185.673 617.537 182.32 627.75 181.65C636.931 181.254 646.093 182.78 654.65 186.13C661.478 188.747 667.973 192.161 674 196.3C675.9 197.6 677.81 198.95 679.61 200.41C680.361 196.935 681.715 193.618 683.61 190.61C685.278 187.893 687.607 185.643 690.38 184.07C693.81 182.328 697.709 181.739 701.5 182.39C711.5 183.86 720.74 190.61 726.2 198.96C731.217 206.839 733.569 216.122 732.91 225.44C732.44 232.51 730.34 239.72 726.1 245.44C725.304 246.539 724.424 247.575 723.47 248.54V248.54C723.186 248.805 722.81 248.949 722.421 248.942C722.032 248.935 721.662 248.778 721.387 248.503C721.112 248.228 720.955 247.858 720.948 247.469C720.941 247.08 721.085 246.704 721.35 246.42L721.78 245.98C727.65 239.74 730.06 230.79 730.03 222.38C730.094 213.641 727.283 205.124 722.03 198.14C719.187 194.48 715.645 191.42 711.61 189.14C707.69 186.92 703.17 185.14 698.61 185.06C692.34 184.97 687.74 188.86 685.03 194.19C684.029 196.19 683.258 198.297 682.73 200.47C682.55 201.19 682.39 201.91 682.26 202.64C682.26 202.78 682.19 203.1 682.15 203.29C682.15 203.29 682.15 203.22 682.15 203.17C682.141 203.462 682.047 203.746 681.881 203.986C681.715 204.227 681.483 204.415 681.212 204.527C680.942 204.638 680.645 204.67 680.357 204.617C680.07 204.565 679.803 204.43 679.59 204.23C679.03 203.71 678.43 203.23 677.84 202.75C676.27 201.47 674.62 200.25 672.77 198.99C670.123 197.185 667.386 195.516 664.57 193.99C657.47 190.008 649.785 187.173 641.8 185.59C632.265 183.705 622.4 184.395 613.22 187.59C604.654 190.783 596.88 195.791 590.43 202.27C577.74 214.75 570.1 231.84 567.9 249.4C565.554 268.988 569.36 288.821 578.79 306.15C587.17 321.67 599.94 335.08 616.79 341.26C628.16 345.44 641.09 346.46 652.79 342.98C657.95 341.44 662.61 338.58 667.64 336.33C675.152 332.885 682.965 330.136 690.98 328.12C699.59 326.03 708.6 324.94 717.42 326.17C721.631 326.727 725.731 327.924 729.58 329.72C732.768 331.308 735.722 333.327 738.36 335.72C738.91 336.18 739.45 336.66 739.99 337.14C740.578 337.664 741.196 338.155 741.84 338.61V338.61C752.72 346.37 767.77 341.98 778.84 336.66C784.474 333.926 789.878 330.742 795 327.14C795.93 326.49 796.85 325.83 797.77 325.14L799.01 324.21L799.46 323.86L799.62 323.74L799.69 323.69L800.69 322.88L801.41 322.31C802.94 321.06 805.07 323.17 803.59 324.41Z" fill="#4D4D4D"/>
<path d="M817.69 334.3C817.574 334.497 817.414 334.664 817.223 334.79C817.032 334.916 816.815 334.996 816.588 335.025C816.362 335.054 816.131 335.031 815.915 334.957C815.699 334.883 815.502 334.761 815.34 334.6C813.94 333.17 812.42 331.83 810.89 330.53C808.47 328.46 805.89 326.53 803.3 324.63L802.02 323.75L800.72 322.88C796.048 319.792 791.068 317.198 785.86 315.14C774.01 310.52 760.93 309.48 749.11 314.71L748.86 314.82C748.571 314.979 748.24 315.042 747.913 315.001C747.586 314.959 747.28 314.816 747.04 314.59L746.84 314.39C746.61 314.18 746.38 313.97 746.14 313.77C741.791 309.88 737.106 306.383 732.14 303.32C722.39 297.32 711.43 292.88 699.98 291.72C693.329 291.026 686.607 291.524 680.13 293.19C676.73 294.08 673.49 295.42 670.13 296.53C667.136 297.527 664.088 298.352 661 299C650.22 301.22 638.75 300.89 628.92 295.52C618.73 289.95 612.12 280.02 607.77 269.52C607.51 268.91 607.27 268.3 607.03 267.68C606.933 267.473 606.897 267.243 606.925 267.017C606.954 266.79 607.045 266.576 607.19 266.4C607.342 266.228 607.534 266.097 607.75 266.02C607.948 265.935 608.161 265.891 608.376 265.891C608.591 265.89 608.804 265.932 609.003 266.015C609.202 266.098 609.381 266.22 609.532 266.374C609.683 266.527 609.801 266.71 609.88 266.91C610 267.22 610.12 267.53 610.25 267.84C610.78 269.17 611.34 270.48 611.95 271.78C616.74 281.93 624.22 291.14 635.04 295.06C645.7 298.93 657.37 297.42 667.95 294.06C671.26 293.06 674.45 291.66 677.77 290.69C681.12 289.719 684.551 289.05 688.02 288.69C694.457 288.071 700.952 288.459 707.27 289.84C718.001 292.278 728.166 296.745 737.22 303L738.47 303.85C741.991 306.207 745.319 308.842 748.42 311.73H748.5C755.255 308.888 762.594 307.708 769.9 308.29C778.575 309.121 786.991 311.703 794.64 315.88C797.61 317.431 800.491 319.147 803.27 321.02C807.801 323.993 812.061 327.359 816 331.08C816.86 329.46 817.69 327.81 818.47 326.14C825.01 312.04 827.39 296.19 822.82 281.14C819.21 269.29 811.82 258.98 803.02 250.41C798.286 245.579 792.716 241.645 786.58 238.8C779.906 235.933 772.714 234.467 765.45 234.49C758.643 234.423 751.893 235.726 745.6 238.32L745.32 238.44C742.53 239.626 739.893 241.148 737.47 242.97C736.76 243.51 736.05 244.03 735.32 244.51C732.825 246.294 730.026 247.609 727.06 248.39C725.997 248.648 724.918 248.832 723.83 248.94C715.27 249.8 706.18 246.12 699.9 240.44C698.46 239.14 700.59 237.02 702.02 238.32L702.6 238.81C703.111 239.236 703.645 239.633 704.2 240C705.06 240.62 705.95 241.19 706.86 241.73C709.257 243.163 711.823 244.292 714.5 245.09C716.847 245.777 719.286 246.094 721.73 246.03C722.45 246.03 723.17 245.95 723.88 245.86C724.62 245.766 725.354 245.633 726.08 245.46C729.361 244.667 732.432 243.173 735.08 241.08C746 232.6 760.7 230.16 774.15 232.18C781.612 233.27 788.757 235.936 795.11 240C800.339 243.564 805.094 247.777 809.26 252.54C817.97 262.08 824.79 273.59 827.26 286.39C830.42 303 825.83 319.7 817.69 334.3Z" fill="#4D4D4D"/>
<path d="M615.84 259.41C615.632 260.094 615.375 260.763 615.07 261.41C614.005 263.886 612.378 266.08 610.32 267.82C610.08 268.027 609.83 268.227 609.57 268.42C609.011 268.835 608.419 269.203 607.8 269.52C604.361 271.122 600.471 271.476 596.8 270.52C594.91 270.1 595.71 267.21 597.59 267.63C599.874 268.198 602.264 268.181 604.54 267.58C605.309 267.364 606.049 267.051 606.74 266.65L607.22 266.36C607.414 266.244 607.601 266.117 607.78 265.98C608.03 265.79 608.26 265.61 608.48 265.42C609.045 264.933 609.57 264.401 610.05 263.83L610.36 263.45L610.57 263.17L611.11 262.38C611.43 261.88 611.72 261.38 611.99 260.83C612.11 260.6 612.22 260.36 612.33 260.12L612.45 259.87V259.79C612.611 259.401 612.751 259.004 612.87 258.6C612.977 258.206 613.237 257.871 613.591 257.669C613.767 257.568 613.96 257.503 614.161 257.478C614.361 257.452 614.565 257.467 614.76 257.52C614.955 257.573 615.138 257.664 615.297 257.788C615.457 257.912 615.591 258.066 615.691 258.241C615.792 258.417 615.856 258.61 615.882 258.811C615.907 259.011 615.893 259.215 615.84 259.41Z" fill="#4D4D4D"/>
<path d="M818.51 326.14C817.73 327.81 816.9 329.46 816.04 331.08C812.089 327.35 807.815 323.977 803.27 321C800.491 319.127 797.61 317.411 794.64 315.86C786.991 311.683 778.575 309.101 769.9 308.27C762.594 307.688 755.255 308.868 748.5 311.71C737.71 299.49 728.16 284.01 729.58 267.1C729.891 263.523 730.706 260.009 732 256.66C734.02 251.49 737.022 246.759 740.84 242.73C741.791 241.717 742.792 240.752 743.84 239.84L744.7 239.12C744.7 239.12 744.7 239.12 744.76 239.07C744.96 238.924 745.121 238.732 745.23 238.51V238.51L745.51 238.39C751.803 235.796 758.553 234.493 765.36 234.56C772.624 234.536 779.816 236.003 786.49 238.87C792.626 241.715 798.196 245.649 802.93 250.48C811.74 259.05 819.12 269.36 822.73 281.21C827.43 296.19 825.05 312 818.51 326.14Z" fill="#0C0C0C"/>
<path d="M749.4 314.28L749.11 314.71C747.332 317.4 745.773 320.229 744.45 323.17C742.34 327.8 740.28 333.55 741.73 338.65C741.73 338.82 741.83 338.98 741.89 339.15C741.974 339.359 742.002 339.586 741.971 339.809C741.939 340.032 741.849 340.243 741.71 340.42C741.535 340.635 741.306 340.8 741.048 340.899C740.789 340.998 740.509 341.028 740.235 340.986C739.961 340.943 739.703 340.83 739.486 340.657C739.27 340.484 739.102 340.258 739 340C738.774 339.349 738.603 338.68 738.49 338C738.355 337.287 738.275 336.565 738.25 335.84C738.09 331.29 739.73 326.59 741.5 322.54C742.801 319.519 744.353 316.612 746.14 313.85L746.21 313.74C743.446 310.63 740.862 307.365 738.47 303.96C734.44 298.339 731.25 292.161 729 285.62C725.47 275.486 725.715 264.418 729.69 254.45C730.388 252.729 731.203 251.059 732.13 249.45C733.114 247.748 734.192 246.102 735.36 244.52C737.612 241.446 740.308 238.723 743.36 236.44C744.68 235.44 745.97 237.21 745.36 238.44C745.251 238.662 745.09 238.854 744.89 239V239C744.89 239 744.84 239 744.83 239.05L743.97 239.77C742.922 240.682 741.921 241.647 740.97 242.66C737.098 246.699 734.051 251.454 732 256.66C730.697 260.014 729.876 263.536 729.56 267.12C728.14 284.03 737.69 299.51 748.48 311.73L749.14 312.47C749.377 312.701 749.531 313.003 749.578 313.331C749.625 313.658 749.562 313.992 749.4 314.28V314.28Z" fill="#4D4D4D"/>
<g style="mix-blend-mode:screen">
<path d="M760.15 240.33C760.74 240.28 761.15 240.28 761.55 240.28C761.95 240.28 762.39 240.28 762.81 240.28C763.63 240.28 764.45 240.35 765.25 240.41C766.87 240.54 768.46 240.75 770.03 241.01C773.164 241.548 776.247 242.344 779.25 243.39C785.185 245.444 790.74 248.465 795.69 252.33C800.536 256.136 804.778 260.654 808.27 265.73C811.694 270.718 814.527 276.087 816.71 281.73C816.734 281.791 816.746 281.856 816.746 281.922C816.745 281.988 816.731 282.053 816.705 282.113C816.679 282.173 816.641 282.228 816.594 282.274C816.547 282.32 816.491 282.356 816.43 282.38C816.315 282.427 816.187 282.429 816.071 282.386C815.954 282.344 815.858 282.26 815.8 282.15C813.1 276.921 809.805 272.022 805.98 267.55C802.22 263.171 797.82 259.385 792.93 256.32C788.129 253.333 782.868 251.157 777.36 249.88C774.65 249.259 771.894 248.854 769.12 248.67C767.74 248.59 766.37 248.57 765.01 248.6C764.33 248.6 763.65 248.66 763.01 248.71L762.01 248.81C761.735 248.835 761.461 248.875 761.19 248.93C760.634 249.061 760.059 249.082 759.495 248.991C758.932 248.899 758.392 248.698 757.906 248.398C757.42 248.098 756.999 247.706 756.665 247.243C756.331 246.78 756.091 246.255 755.96 245.7C755.829 245.144 755.808 244.569 755.899 244.005C755.991 243.442 756.192 242.902 756.492 242.416C756.792 241.93 757.184 241.509 757.647 241.175C758.11 240.841 758.634 240.601 759.19 240.47C759.398 240.425 759.608 240.395 759.82 240.38L760.15 240.33Z" fill="#E5E5E5"/>
</g>
<g style="mix-blend-mode:multiply">
<g style="mix-blend-mode:multiply">
<path d="M731.47 324.78C734.165 326.091 736.682 327.741 738.96 329.69C738.443 331.674 738.204 333.72 738.25 335.77C735.612 333.377 732.658 331.358 729.47 329.77C725.621 327.974 721.521 326.777 717.31 326.22C708.49 324.99 699.48 326.08 690.87 328.17C682.855 330.186 675.042 332.935 667.53 336.38C662.53 338.63 657.84 341.49 652.68 343.03C640.99 346.51 628.06 345.49 616.68 341.31C599.87 335.13 587.1 321.72 578.68 306.2C569.25 288.871 565.444 269.038 567.79 249.45C568.8 241.33 570.976 233.399 574.25 225.9C572.075 231.897 570.579 238.119 569.79 244.45C567.444 264.038 571.25 283.871 580.68 301.2C589.06 316.72 601.83 330.13 618.68 336.31C630.05 340.49 642.98 341.51 654.68 338.03C659.84 336.49 664.5 333.63 669.53 331.38C677.042 327.935 684.855 325.186 692.87 323.17C701.48 321.08 710.49 319.99 719.31 321.22C723.521 321.78 727.622 322.98 731.47 324.78V324.78Z" fill="#2D2D2D"/>
</g>
</g>
<g style="mix-blend-mode:multiply" opacity="0.5">
<g style="mix-blend-mode:multiply" opacity="0.5">
<path d="M800.72 322.89L799.72 323.7L799.65 323.75L799.49 323.87L799.04 324.22L797.8 325.15C796.88 325.82 795.96 326.48 795.03 327.15C789.887 330.776 784.46 333.98 778.8 336.73C767.69 342.05 752.64 346.44 741.8 338.68C740.35 333.58 742.41 327.83 744.52 323.2C743.4 326.64 742.82 330.32 743.78 333.71C754.66 341.47 769.71 337.08 780.78 331.76C786.438 328.996 791.862 325.779 797 322.14L798.18 321.3C799 321.81 799.88 322.34 800.72 322.89Z" fill="#2D2D2D"/>
</g>
<g style="mix-blend-mode:multiply" opacity="0.5">
<path d="M821.13 319.75C820.36 321.92 819.48 324.05 818.51 326.15C817.73 327.82 816.9 329.47 816.04 331.09C812.089 327.357 807.816 323.98 803.27 321C802.45 320.45 801.61 319.91 800.77 319.38C798.77 318.13 796.77 316.95 794.64 315.86C786.991 311.683 778.575 309.101 769.9 308.27C763.228 307.737 756.52 308.676 750.25 311.02C749.66 311.24 749.08 311.47 748.5 311.71C737.71 299.49 728.16 284.01 729.58 267.1C729.892 263.527 730.707 260.015 732 256.67C732.39 255.67 732.82 254.67 733.28 253.67C732.386 256.401 731.809 259.227 731.56 262.09C730.14 279 739.69 294.48 750.48 306.7C757.235 303.858 764.574 302.678 771.88 303.26C780.555 304.091 788.971 306.673 796.62 310.85C799.59 312.401 802.471 314.117 805.25 315.99C809.789 318.974 814.056 322.354 818 326.09C818.86 324.47 819.69 322.82 820.47 321.15C820.73 320.69 820.94 320.22 821.13 319.75Z" fill="#2D2D2D"/>
</g>
</g>
<g style="mix-blend-mode:screen">
<g style="mix-blend-mode:screen">
<path d="M692.1 233.48C693.969 236.602 696.245 239.46 698.87 241.98C700.161 243.217 701.541 244.357 703 245.39C704.46 246.401 705.995 247.3 707.59 248.08C710.806 249.6 714.254 250.574 717.79 250.96C721.377 251.321 724.994 251.237 728.56 250.71L729.56 250.58L729.08 251.38C728.694 252.019 728.36 252.688 728.08 253.38C727.803 254.062 727.566 254.76 727.37 255.47C726.967 256.906 726.719 258.381 726.63 259.87C726.524 258.362 726.608 256.847 726.88 255.36C727.006 254.608 727.186 253.866 727.42 253.14C727.64 252.398 727.921 251.676 728.26 250.98L728.74 251.64C725.126 252.636 721.372 253.031 717.63 252.81C715.74 252.698 713.866 252.39 712.04 251.89C710.202 251.419 708.422 250.748 706.73 249.89C699.971 246.469 694.747 240.628 692.1 233.53V233.48Z" fill="#E5E5E5"/>
</g>
</g>
</g>
<defs>
<clipPath id="clip0">
<rect width="1080" height="1080" fill="white"/>
</clipPath>
</defs>
</svg>
